<svg xmlns="http://www.w3.org/2000/svg" viewBox="0 0 64 64">
  <defs>
    <linearGradient id="bg" x1="0%" y1="0%" x2="100%" y2="100%">
      <stop offset="0%" stop-color="#f0b45d" />
      <stop offset="100%" stop-color="#c96a35" />
    </linearGradient>
  </defs>
  <rect width="64" height="64" rx="18" fill="#17120f" />
  <circle cx="32" cy="32" r="24" fill="url(#bg)" />
  <path d="M23 22h14c4 0 7 2.4 7 6.2 0 2.8-1.7 4.8-4.4 5.7 2.8.7 4.4 2.8 4.4 5.8 0 4.2-3.2 7.3-8.2 7.3H23V22zm11.8 9.7c2.1 0 3.4-1 3.4-2.8 0-1.7-1.2-2.7-3.4-2.7h-5.6v5.5h5.6zm.9 11c2.4 0 3.8-1.1 3.8-3.1s-1.4-3-3.8-3h-6.5v6.1h6.5z" fill="#17120f"/>
  <path d="M17 48l8-4 6 4 7-3 9 3" fill="none" stroke="#fff6e8" stroke-linecap="round" stroke-linejoin="round" stroke-width="2.4"/>
</svg>
